<svg width="150" height="49" viewBox="0 0 150 49" fill="none" xmlns="http://www.w3.org/2000/svg">
<g clip-path="url(#clip0_203_261)">
<path d="M51.6892 47.4963C51.9257 47.6305 52.2297 47.7379 52.6081 47.8051C52.9865 47.8722 53.3784 47.9192 53.7838 47.9326C54.1892 47.946 54.5405 47.9594 54.8378 47.9594C54.9527 47.9594 55.0878 47.9595 55.2432 47.9527C55.3987 47.9527 55.5338 47.946 55.6486 47.946C56.0338 47.9326 56.3649 47.8923 56.6554 47.8118C56.9459 47.7312 57.1622 47.597 57.3176 47.409C57.473 47.2211 57.5473 46.9459 57.5473 46.6036C57.5473 46.174 57.4324 45.8921 57.2027 45.7645C56.973 45.637 56.6419 45.5766 56.2027 45.5766H54.3851C54.0676 45.5766 53.75 45.5631 53.4257 45.5296C53.1081 45.496 52.8176 45.4289 52.5608 45.3148C52.3041 45.2007 52.0946 45.0262 51.9392 44.7778C51.7838 44.5294 51.7027 44.1804 51.7027 43.724C51.7027 43.1937 51.7973 42.7775 51.9932 42.4688C52.1892 42.16 52.4527 41.9385 52.7973 41.7975C53.1419 41.6566 53.5405 41.5626 53.9932 41.5223C54.4459 41.4821 54.9392 41.4619 55.4865 41.4619C55.8041 41.4619 56.1554 41.4619 56.5405 41.4753C56.9257 41.4888 57.2905 41.5089 57.6419 41.5492C57.9932 41.5894 58.2635 41.6499 58.4527 41.7304C58.6757 41.7505 58.8514 41.8177 58.973 41.9251C59.0946 42.0392 59.1554 42.1734 59.1554 42.3479V42.8581C59.0676 42.7507 58.9122 42.6701 58.6824 42.6097C58.4527 42.5493 58.1959 42.509 57.9122 42.4755C57.6216 42.4419 57.3446 42.4218 57.0743 42.4016C56.8041 42.3882 56.5743 42.3748 56.3784 42.3748H55.2905C54.9257 42.3748 54.6014 42.4016 54.3176 42.462C54.0338 42.5225 53.8041 42.6366 53.6284 42.8111C53.4595 42.9856 53.3716 43.2541 53.3716 43.6099C53.3716 43.8851 53.4257 44.0931 53.5405 44.2341C53.6554 44.3751 53.8176 44.469 54.0338 44.516C54.25 44.563 54.5068 44.5899 54.8108 44.5899H56.8378C57.3176 44.5899 57.7365 44.6301 58.1081 44.7107C58.473 44.7912 58.7635 44.9658 58.973 45.241C59.1824 45.5162 59.2838 45.9525 59.2838 46.5431C59.2838 47.1003 59.1622 47.55 58.9189 47.8856C58.6757 48.2212 58.3378 48.4562 57.9122 48.5971C57.4865 48.7381 57 48.8253 56.4459 48.8589C56.1149 48.879 55.7973 48.8925 55.4865 48.8992C55.1757 48.9059 54.8514 48.8992 54.5135 48.8925C54.2027 48.8925 53.8851 48.879 53.5541 48.8589C53.223 48.8388 52.9189 48.7985 52.6351 48.7381C52.3514 48.6777 52.1216 48.5971 51.9459 48.4897C51.7703 48.3823 51.6824 48.2414 51.6824 48.0601V47.503L51.6892 47.4963Z" fill="white"/>
<path d="M60.0203 41.5962H67.7432V42.5024H64.7095V48.275C64.7095 48.5099 64.6757 48.671 64.6081 48.7582C64.5405 48.8455 64.3851 48.8925 64.1351 48.8925H63.0676V42.5024H60.0203V41.5962Z" fill="white"/>
<path d="M76.2095 45.57C76.2095 46.0667 76.1824 46.5231 76.1351 46.9326C76.0878 47.3421 75.9459 47.6978 75.7027 47.9864C75.4662 48.2751 75.0878 48.4966 74.5676 48.651C74.0541 48.8053 73.3243 48.8792 72.3919 48.8792C71.6486 48.8792 71.0405 48.8322 70.5676 48.7315C70.0946 48.6308 69.7297 48.4831 69.4662 48.2952C69.2027 48.1073 69.0203 47.879 68.8986 47.624C68.7838 47.3622 68.7162 47.0668 68.6892 46.7379C68.6622 46.409 68.6554 46.0533 68.6554 45.6841V42.3414C68.6554 42.1199 68.6554 41.9521 68.6689 41.8447C68.6824 41.7373 68.7297 41.6567 68.8176 41.6164C68.9054 41.5762 69.0608 41.5493 69.2703 41.5493H70.2905V46.2278C70.2905 46.691 70.3581 47.0467 70.5 47.2951C70.6351 47.5434 70.8649 47.7179 71.1757 47.8119C71.4865 47.9059 71.8986 47.9529 72.3986 47.9529C73.1757 47.9529 73.7297 47.8186 74.0608 47.5568C74.3919 47.2951 74.554 46.8453 74.554 46.2278V41.5493H75.5608C75.777 41.5493 75.9257 41.5695 76.0135 41.6164C76.1013 41.6567 76.1554 41.7373 76.1757 41.8447C76.1892 41.9588 76.2027 42.1199 76.2027 42.3414V45.5767L76.2095 45.57Z" fill="white"/>
<path d="M85.3851 45.2544C85.3851 46.1002 85.2905 46.7647 85.1081 47.2547C84.9189 47.738 84.6487 48.1004 84.2973 48.3354C83.9392 48.5703 83.5 48.718 82.9662 48.7851C82.4324 48.8522 81.8243 48.8858 81.1284 48.8858C80.7635 48.8858 80.4054 48.8858 80.0405 48.8791C79.6757 48.8723 79.3243 48.8723 78.9797 48.8723C78.6351 48.8723 78.3176 48.8723 78.0405 48.8656C77.7568 48.8656 77.5203 48.8589 77.3311 48.8589V42.5829C77.3311 42.2473 77.3851 41.9989 77.4932 41.8378C77.6014 41.6767 77.8514 41.5895 78.2432 41.5693C78.4324 41.5559 78.6757 41.5559 78.9662 41.5559C79.2568 41.5559 79.5676 41.5559 79.8919 41.5492C80.2162 41.5492 80.527 41.5425 80.8311 41.5425C81.1351 41.5425 81.4054 41.5425 81.6351 41.5559C82.2703 41.576 82.8243 41.6297 83.2973 41.7036C83.7635 41.7841 84.1554 41.9452 84.473 42.1936C84.7838 42.4419 85.0203 42.8111 85.1689 43.2944C85.3176 43.7777 85.3919 44.4355 85.3919 45.2611L85.3851 45.2544ZM78.973 47.9796C79.0473 47.9796 79.1757 47.9796 79.3581 47.9863C79.5405 47.9863 79.7365 47.993 79.9459 47.993C80.1554 47.993 80.3649 47.993 80.5676 47.9997C80.7703 47.9997 80.9324 48.0065 81.0473 48.0065C81.5473 48.0065 81.9662 47.9729 82.2973 47.8923C82.6351 47.8185 82.9054 47.6843 83.1216 47.4963C83.3378 47.3084 83.4865 47.0265 83.5743 46.664C83.6622 46.3015 83.7095 45.8317 83.7095 45.2611C83.7095 44.4691 83.6284 43.8649 83.4595 43.4555C83.2905 43.046 83.0203 42.7641 82.6486 42.6165C82.2703 42.4688 81.75 42.3949 81.0743 42.3949H80.4932C80.2432 42.3949 79.9932 42.3949 79.75 42.4017C79.5068 42.4017 79.3108 42.4218 79.1622 42.4419C79.1014 42.4822 79.0473 42.5426 79.0203 42.6097C78.9865 42.6769 78.973 42.8044 78.973 42.9991V47.9796Z" fill="white"/>
<path d="M86.3108 48.8859V42.1937C86.3108 42.0595 86.3176 41.9454 86.3311 41.8581C86.3446 41.7708 86.3919 41.7104 86.473 41.6634C86.5541 41.6164 86.6824 41.5896 86.8649 41.5896H87.9459V48.8792H86.3041L86.3108 48.8859Z" fill="white"/>
<path d="M95.277 42.7172V47.6105H90.3514V42.7172H95.277ZM95.4865 41.4419H90.1554C89.5608 41.4419 89.0743 41.9252 89.0743 42.5159V47.8119C89.0743 48.4026 89.5541 48.8859 90.1486 48.8859H95.5C96.0878 48.8859 96.5608 48.4093 96.5608 47.832V42.5159C96.5608 41.9252 96.0811 41.4419 95.4865 41.4419Z" fill="white"/>
<path d="M84.5338 10.7666L75.4392 19.8014C74.6892 20.5465 73.4797 20.5465 72.7297 19.8014L63.6351 10.7666" stroke="white" stroke-width="1.5" stroke-miterlimit="10" stroke-linecap="round"/>
<path d="M52.3044 22.0376L59.7455 14.6402C60.5766 13.814 61.9239 13.8136 62.7555 14.6391L70.2257 22.0551C71.043 22.8664 71.0387 24.1811 70.2268 24.9883L62.7618 32.4094C61.9307 33.2356 60.5834 33.236 59.7518 32.4105L52.3054 25.0183C51.4738 24.1927 51.4734 22.8542 52.3044 22.0281L52.3044 22.0376Z" stroke="#F9E1A6" stroke-width="1.5" stroke-miterlimit="10"/>
<path d="M66.2432 8.17573L72.7297 1.7319C73.4797 0.986829 74.6892 0.986829 75.4392 1.7319L81.9257 8.17573" stroke="#AC529C" stroke-width="1.5" stroke-miterlimit="10" stroke-linecap="round"/>
<path d="M69.6169 10.0211L73.3374 6.32237C73.7529 5.9093 74.4314 5.90906 74.8472 6.32185L78.5847 10.0322C78.9909 10.4355 78.996 11.0952 78.5852 11.5035L74.8503 15.2165C74.4348 15.6296 73.7564 15.6298 73.3405 15.217L69.6174 11.5209C69.2016 11.1081 69.2013 10.4341 69.6169 10.0211Z" stroke="#AC529C" stroke-width="1.5" stroke-miterlimit="10"/>
<path d="M86.9189 13.1494L77.8176 22.1842C77.0676 22.9293 77.0676 24.1308 77.8176 24.8759L81.6824 28.722" stroke="#F9E1A6" stroke-width="1.5" stroke-miterlimit="10" stroke-linecap="round"/>
<path d="M87.6757 32.9643L96.0068 24.8827C96.7568 24.1376 96.7568 22.9361 96.0068 22.191L92.1351 18.3381" stroke="#F9E1A6" stroke-width="1.5" stroke-miterlimit="10" stroke-linecap="round"/>
<path d="M106.743 19.9153V26.6343H111.845V27.5875H105.027V20.5664C105.027 20.4187 105.027 20.3046 105.047 20.2106C105.061 20.1167 105.108 20.0428 105.196 19.9958C105.284 19.9488 105.426 19.922 105.615 19.922H106.743V19.9153Z" fill="white"/>
<path d="M122.791 19.9153H130.919V20.8684H127.73V26.9431C127.73 27.1847 127.696 27.3593 127.622 27.4532C127.547 27.5472 127.385 27.5942 127.128 27.5942H126.007V20.8751H122.797V19.922L122.791 19.9153Z" fill="white"/>
<path d="M140.385 24.1039C140.385 24.6274 140.358 25.104 140.311 25.5403C140.264 25.9766 140.108 26.3458 139.858 26.6479C139.608 26.9566 139.209 27.1848 138.669 27.3459C138.128 27.507 137.365 27.5876 136.378 27.5876C135.595 27.5876 134.953 27.5339 134.453 27.4265C133.953 27.3191 133.568 27.1647 133.297 26.9701C133.02 26.7687 132.824 26.5337 132.703 26.2585C132.581 25.9833 132.507 25.6746 132.486 25.3255C132.466 24.9765 132.453 24.6073 132.453 24.218V20.7007C132.453 20.4658 132.453 20.2913 132.466 20.1772C132.48 20.0631 132.534 19.9825 132.628 19.9355C132.723 19.8885 132.885 19.8684 133.108 19.8684H134.182V24.7885C134.182 25.2785 134.257 25.6544 134.399 25.9162C134.541 26.178 134.784 26.3592 135.115 26.4599C135.446 26.5606 135.872 26.6076 136.399 26.6076C137.216 26.6076 137.797 26.4666 138.142 26.1914C138.486 25.9162 138.662 25.4464 138.662 24.7885V19.8684H139.723C139.946 19.8684 140.108 19.8885 140.203 19.9355C140.297 19.9825 140.351 20.0631 140.372 20.1772C140.392 20.2913 140.399 20.4658 140.399 20.7007V24.1039H140.385Z" fill="white"/>
<path d="M141.912 26.1243C142.155 26.2719 142.48 26.3793 142.878 26.4465C143.277 26.5203 143.689 26.5606 144.115 26.5807C144.541 26.5941 144.912 26.6076 145.223 26.6076C145.345 26.6076 145.486 26.6076 145.649 26.6008C145.811 26.6008 145.953 26.5941 146.074 26.5941C146.48 26.5807 146.831 26.5337 147.135 26.4532C147.439 26.3726 147.669 26.225 147.831 26.0303C147.993 25.8289 148.074 25.547 148.074 25.1778C148.074 24.7214 147.953 24.4261 147.716 24.2918C147.473 24.1576 147.128 24.0904 146.669 24.0904H144.757C144.419 24.0904 144.088 24.0703 143.75 24.0435C143.412 24.0099 143.115 23.9361 142.845 23.8152C142.574 23.7011 142.358 23.5132 142.189 23.2514C142.02 22.9896 141.939 22.6204 141.939 22.1439C141.939 21.5867 142.041 21.1504 142.243 20.8282C142.446 20.5061 142.73 20.2711 143.088 20.1167C143.453 19.9691 143.872 19.8684 144.345 19.8281C144.818 19.7811 145.345 19.761 145.912 19.761C146.25 19.761 146.615 19.761 147.02 19.7811C147.426 19.7945 147.811 19.8147 148.176 19.855C148.547 19.8952 148.831 19.9556 149.034 20.0496C149.27 20.0698 149.453 20.1436 149.581 20.2577C149.709 20.3718 149.777 20.5195 149.777 20.7007V21.2377C149.689 21.1236 149.52 21.043 149.284 20.9759C149.047 20.9088 148.77 20.8685 148.466 20.835C148.162 20.8014 147.872 20.7745 147.588 20.7611C147.304 20.7477 147.061 20.7343 146.858 20.7343H145.716C145.338 20.7343 144.993 20.7678 144.689 20.8282C144.385 20.8887 144.149 21.0095 143.966 21.1974C143.791 21.3787 143.696 21.6606 143.696 22.0365C143.696 22.3251 143.757 22.5466 143.872 22.6943C143.986 22.8419 144.162 22.9426 144.392 22.9963C144.622 23.0433 144.892 23.0702 145.209 23.0702H147.345C147.845 23.0702 148.291 23.1104 148.676 23.1977C149.061 23.2782 149.365 23.4662 149.581 23.7548C149.797 24.0435 149.912 24.4999 149.912 25.1241C149.912 25.7148 149.784 26.1847 149.527 26.5337C149.27 26.8828 148.919 27.1311 148.466 27.2855C148.02 27.4332 147.5 27.5272 146.919 27.5607C146.574 27.5808 146.236 27.5943 145.912 27.601C145.588 27.601 145.243 27.601 144.885 27.5943C144.561 27.5943 144.223 27.5808 143.878 27.5607C143.534 27.5406 143.209 27.4936 142.912 27.4332C142.615 27.3728 142.378 27.2855 142.189 27.1714C142.007 27.0573 141.912 26.9096 141.912 26.7217V26.1377V26.1243Z" fill="white"/>
<path d="M119.912 21.0967V26.2451H114.73V21.0967H119.912ZM120.128 19.7543H114.52C113.892 19.7543 113.385 20.2644 113.385 20.8819V26.4532C113.385 27.0774 113.892 27.5808 114.52 27.5808H120.155C120.77 27.5808 121.27 27.0841 121.27 26.4733V20.8752C121.27 20.251 120.764 19.7476 120.135 19.7476L120.128 19.7543Z" fill="white"/>
<path d="M8.55406 23.7215C8.55406 24.621 8.46622 25.3325 8.28379 25.8493C8.10136 26.3662 7.83784 26.7488 7.48649 26.9971C7.13514 27.2455 6.70271 27.4066 6.18244 27.4804C5.66217 27.5542 5.06081 27.5878 4.38514 27.5878C4.03379 27.5878 3.67568 27.5878 3.32433 27.5811C2.97298 27.5811 2.62163 27.5744 2.28379 27.5744C1.94595 27.5744 1.6419 27.5744 1.36487 27.5677C1.08784 27.561 0.858112 27.561 0.668922 27.561V20.8755C0.668922 20.513 0.722976 20.2512 0.824328 20.0834C0.925679 19.9156 1.17568 19.8216 1.56081 19.7948C1.75 19.7814 1.98649 19.7747 2.27027 19.7747C2.55406 19.7747 2.85811 19.7747 3.17568 19.7679C3.49325 19.7679 3.7973 19.7612 4.0946 19.7612C4.3919 19.7612 4.65541 19.7612 4.88514 19.7747C5.50676 19.7948 6.0473 19.8485 6.50676 19.9358C6.96622 20.023 7.3446 20.1975 7.65541 20.4593C7.95946 20.7211 8.18919 21.1171 8.33108 21.634C8.47298 22.1508 8.5473 22.8489 8.5473 23.7282L8.55406 23.7215ZM2.28379 26.6212C2.35811 26.6212 2.47973 26.6212 2.65541 26.6279C2.83108 26.6279 3.02703 26.6347 3.22973 26.6347C3.43244 26.6347 3.6419 26.6347 3.83784 26.6414C4.03379 26.6414 4.18919 26.6481 4.30406 26.6481C4.79054 26.6481 5.20271 26.6078 5.52703 26.5273C5.85136 26.4467 6.12163 26.3057 6.33108 26.1044C6.54054 25.903 6.68919 25.6077 6.77703 25.2184C6.86487 24.829 6.91217 24.3323 6.91217 23.7282C6.91217 22.8825 6.83108 22.2448 6.66892 21.8018C6.50676 21.3655 6.24325 21.0634 5.87163 20.909C5.5 20.7479 4.98649 20.6741 4.33108 20.6741H3.76352C3.52027 20.6741 3.27703 20.6741 3.04054 20.6808C2.80406 20.6808 2.60811 20.701 2.45946 20.7211C2.39865 20.7681 2.35135 20.8285 2.31757 20.8956C2.28379 20.9694 2.27027 21.1104 2.27027 21.3118V26.6078L2.28379 26.6212Z" fill="white"/>
<path d="M30.277 25.0169V25.7552C30.277 26.0304 30.2568 26.2586 30.223 26.4399C30.1892 26.6748 30.0878 26.8829 29.9324 27.0507C29.7703 27.2185 29.5743 27.346 29.3311 27.4333C29.0878 27.5206 28.8108 27.5675 28.5068 27.5743C28.2905 27.5877 28.0878 27.5944 27.8851 27.5944C27.6824 27.5944 27.4797 27.581 27.2635 27.5608C27.0541 27.5407 26.8176 27.5071 26.5743 27.4736V26.4265C26.6824 26.4734 26.8378 26.5137 27.0541 26.554C27.2635 26.5943 27.4459 26.6144 27.5878 26.6144C27.8987 26.6144 28.1149 26.5473 28.25 26.413C28.3851 26.2788 28.4527 26.0707 28.4527 25.7888V19.7678H29.6419C29.8649 19.7678 30.0203 19.7947 30.1149 19.8417C30.2027 19.8886 30.2568 19.9692 30.2635 20.0766C30.277 20.184 30.2838 20.3115 30.2838 20.4592V25.0236L30.277 25.0169Z" fill="white"/>
<path d="M41.4324 18.271H37.1216V18.8818H41.4324V18.271Z" fill="white"/>
<path d="M41.8716 21.097V26.2453H36.6892V21.097H41.8716ZM42.0878 19.7545H36.4797C35.8514 19.7545 35.3446 20.2647 35.3446 20.8822V26.4534C35.3446 27.0777 35.8514 27.5811 36.4797 27.5811H42.1149C42.7297 27.5811 43.2297 27.0844 43.2297 26.4736V20.8755C43.2297 20.2512 42.723 19.7478 42.0946 19.7478L42.0878 19.7545Z" fill="white"/>
<path d="M19.7162 18.271H15.4054V18.8818H19.7162V18.271Z" fill="white"/>
<path d="M20.1554 21.097V26.2453H14.973V21.097H20.1554ZM20.3716 19.7545H14.7635C14.1351 19.7545 13.6284 20.2647 13.6284 20.8822V26.4534C13.6284 27.0777 14.1351 27.5811 14.7635 27.5811H20.3987C21.0135 27.5811 21.5135 27.0844 21.5135 26.4736V20.8755C21.5135 20.2512 21.0068 19.7478 20.3784 19.7478L20.3716 19.7545Z" fill="white"/>
</g>
<defs>
<clipPath id="clip0_203_261">
<rect width="150" height="49" fill="white"/>
</clipPath>
</defs>
</svg>
