<svg width="20" height="15" viewBox="0 0 20 15" fill="none" xmlns="http://www.w3.org/2000/svg">
<path d="M16.2456 1.21608C15.0296 0.649203 13.713 0.237763 12.3415 4.20566e-05C12.3295 -0.000342505 12.3175 0.00191409 12.3065 0.00665322C12.2954 0.0113923 12.2855 0.0184989 12.2775 0.0274716C12.1129 0.329194 11.9209 0.722347 11.7929 1.02407C10.3383 0.804635 8.85891 0.804635 7.40424 1.02407C7.27624 0.713204 7.08423 0.329194 6.91051 0.0274716C6.90137 0.00918536 6.87394 4.20566e-05 6.84651 4.20566e-05C5.47504 0.237763 4.16758 0.649203 2.9424 1.21608C2.93326 1.21608 2.92412 1.22522 2.91497 1.23436C0.428048 4.95561 -0.257686 8.57628 0.0806094 12.1604C0.0806094 12.1787 0.0897525 12.1969 0.108039 12.2061C1.7538 13.413 3.33556 14.1444 4.89903 14.629C4.92646 14.6382 4.95389 14.629 4.96303 14.6107C5.32875 14.1079 5.65791 13.5776 5.94134 13.0198C5.95963 12.9833 5.94134 12.9467 5.90477 12.9375C5.38361 12.7364 4.88988 12.4987 4.4053 12.2244C4.36873 12.2061 4.36873 12.1512 4.39616 12.1238C4.49673 12.0507 4.5973 11.9684 4.69788 11.8952C4.71617 11.8769 4.74359 11.8769 4.76188 11.8861C7.90711 13.3215 11.2992 13.3215 14.4079 11.8861C14.4261 11.8769 14.4536 11.8769 14.4719 11.8952C14.5724 11.9775 14.673 12.0507 14.7736 12.1329C14.8102 12.1604 14.8102 12.2152 14.7644 12.2335C14.289 12.517 13.7861 12.7455 13.265 12.9467C13.2284 12.9558 13.2193 13.0015 13.2284 13.029C13.521 13.5867 13.8501 14.117 14.2067 14.6199C14.2341 14.629 14.2616 14.6382 14.289 14.629C15.8616 14.1444 17.4434 13.413 19.0891 12.2061C19.1074 12.1969 19.1166 12.1787 19.1166 12.1604C19.5189 8.01855 18.4491 4.42531 16.2822 1.23436C16.2731 1.22522 16.2639 1.21608 16.2456 1.21608ZM6.41678 9.97517C5.47504 9.97517 4.68874 9.10658 4.68874 8.03683C4.68874 6.96709 5.45676 6.09849 6.41678 6.09849C7.38595 6.09849 8.15397 6.97623 8.14483 8.03683C8.14483 9.10658 7.37681 9.97517 6.41678 9.97517ZM12.7895 9.97517C11.8478 9.97517 11.0615 9.10658 11.0615 8.03683C11.0615 6.96709 11.8295 6.09849 12.7895 6.09849C13.7587 6.09849 14.5267 6.97623 14.5176 8.03683C14.5176 9.10658 13.7587 9.97517 12.7895 9.97517Z" fill="#F8F8F8"/>
</svg>
