<?xml version="1.0" encoding="utf-8"?>
<!-- Generator: Adobe Illustrator 28.3.0, SVG Export Plug-In . SVG Version: 6.00 Build 0)  -->
<svg version="1.1" id="Calque_1" xmlns="http://www.w3.org/2000/svg" xmlns:xlink="http://www.w3.org/1999/xlink" x="0px" y="0px"
	 viewBox="0 0 19.2 19.2" style="enable-background:new 0 0 19.2 19.2;" xml:space="preserve">
<style type="text/css">
	.st0{fill:#F8F8F8;}
</style>
<path class="st0" d="M9.6,0C4.3,0,0,4.3,0,9.6s4.3,9.6,9.6,9.6s9.6-4.3,9.6-9.6S14.9,0,9.6,0z M7.2,13.6H5.3V7.3h1.9V13.6z M6.3,6.6
	c-0.6,0-1-0.4-1-1c0-0.5,0.4-1,1-1s1,0.4,1,1C7.3,6.1,6.9,6.6,6.3,6.6z M14.4,13.6h-1.9v-3.5c0-0.8-0.3-1.4-1-1.4
	c-0.5,0-0.9,0.4-1,0.7c-0.1,0.1-0.1,0.3-0.1,0.5v3.6H8.4V9.3c0-0.8,0-1.4-0.1-2h1.7l0.1,0.9h0c0.3-0.4,0.9-1,1.9-1
	c1.3,0,2.2,0.9,2.2,2.7V13.6z"/>
</svg>
