<?xml version="1.0" encoding="utf-8"?>
<!-- Generator: Adobe Illustrator 28.3.0, SVG Export Plug-In . SVG Version: 6.00 Build 0)  -->
<svg version="1.1" id="Calque_1" xmlns="http://www.w3.org/2000/svg" xmlns:xlink="http://www.w3.org/1999/xlink" x="0px" y="0px"
	 viewBox="0 0 19.2 19.2" style="enable-background:new 0 0 19.2 19.2;" xml:space="preserve">
<style type="text/css">
	.st0{fill:#F8F8F8;}
</style>
<path class="st0" d="M9.6,0C4.3,0,0,4.3,0,9.6c0,5.3,4.3,9.6,9.6,9.6c5.3,0,9.6-4.3,9.6-9.6C19.2,4.3,14.9,0,9.6,0z M6.4,11.1
	c0,0.6-0.5,1.1-1.1,1.1c-0.3,0-0.6-0.1-0.8-0.3c-0.2-0.2-0.3-0.5-0.3-0.8c0-0.6,0.5-1.1,1.1-1.1h1.1V11.1z M9.2,13.9
	c0,0.6-0.5,1.1-1.1,1.1c-0.6,0-1.1-0.5-1.1-1.1v-2.9c0-0.6,0.5-1.1,1.1-1.1c0.3,0,0.6,0.1,0.8,0.3c0.2,0.2,0.3,0.5,0.3,0.8V13.9z
	 M8.2,9.3H5.3c-0.6,0-1.1-0.5-1.1-1.1c0-0.6,0.5-1.1,1.1-1.1h2.9c0.6,0,1.1,0.5,1.1,1.1C9.2,8.8,8.8,9.3,8.2,9.3z M8.2,6.4
	c-0.3,0-0.6-0.1-0.8-0.3C7.2,5.9,7.1,5.6,7.1,5.3c0-0.6,0.5-1.1,1.1-1.1c0.6,0,1.1,0.5,1.1,1.1v1.1H8.2z M10,5.3
	c0-0.6,0.5-1.1,1.1-1.1c0.6,0,1.1,0.5,1.1,1.1v2.9c0,0.6-0.5,1.1-1.1,1.1c-0.6,0-1.1-0.5-1.1-1.1V5.3z M11,15
	c-0.6,0-1.1-0.5-1.1-1.1v-1.1H11c0.6,0,1.1,0.5,1.1,1.1C12.1,14.5,11.6,15,11,15z M13.9,12.1H11c-0.3,0-0.6-0.1-0.8-0.3
	S10,11.3,10,11.1c0-0.6,0.5-1.1,1.1-1.1h2.9c0.6,0,1.1,0.5,1.1,1.1C15,11.7,14.5,12.1,13.9,12.1z M13.9,9.3h-1.1V8.2
	c0-0.6,0.5-1.1,1.1-1.1S15,7.6,15,8.2C15,8.8,14.5,9.3,13.9,9.3z"/>
</svg>
